<svg viewBox="0 0 128 128"
    xmlns="http://www.w3.org/2000/svg" style="height: 56px; width: 56px; pointer-events: none;">
    <circle cx="64" cy="64" r="60" fill="#f5f5f5" stroke="#424242" stroke-width="4"></circle>
    <circle cx="64" cy="64" r="47.2" stroke="#424242" fill="#f5f5f5" stroke-width="4"></circle>
    <line x1="124" y1="64" x2="111.2" y2="64" stroke-width="4" stroke="#424242"></line>
    <line x1="120.3815572471545" y1="84.52120859954013" x2="108.35349170109488" y2="80.14335076497156" stroke-width="4" stroke="#424242"></line>
    <line x1="109.96266658713867" y1="102.56725658119235" x2="100.15729771521576" y2="94.33957517720465" stroke-width="4" stroke="#424242"></line>
    <line x1="94" y1="115.96152422706632" x2="87.60000000000001" y2="104.87639905862551" stroke-width="4" stroke="#424242"></line>
    <line x1="74.41889066001582" y1="123.08846518073248" x2="72.19619398587912" y2="110.48292594217622" stroke-width="4" stroke="#424242"></line>
    <line x1="53.58110933998418" y1="123.08846518073248" x2="55.80380601412089" y2="110.48292594217622" stroke-width="4" stroke="#424242"></line>
    <line x1="34.000000000000014" y1="115.96152422706632" x2="40.400000000000006" y2="104.87639905862551" stroke-width="4" stroke="#424242"></line>
    <line x1="18.03733341286133" y1="102.56725658119237" x2="27.842702284784238" y2="94.33957517720467" stroke-width="4" stroke="#424242"></line>
    <line x1="7.618442752845503" y1="84.52120859954013" x2="19.646508298905125" y2="80.14335076497157" stroke-width="4" stroke="#424242"></line>
    <line x1="4" y1="64.00000000000001" x2="16.799999999999997" y2="64" stroke-width="4" stroke="#424242"></line>
    <line x1="7.618442752845496" y1="43.47879140045988" x2="19.64650829890512" y2="47.85664923502844" stroke-width="4" stroke="#424242"></line>
    <line x1="18.037333412861315" y1="25.432743418807647" x2="27.84270228478423" y2="33.66042482279535" stroke-width="4" stroke="#424242"></line>
    <line x1="33.99999999999997" y1="12.038475772933694" x2="40.39999999999998" y2="23.123600941374498" stroke-width="4" stroke="#424242"></line>
    <line x1="53.58110933998418" y1="4.911534819267516" x2="55.80380601412089" y2="17.517074057823777" stroke-width="4" stroke="#424242"></line>
    <line x1="74.41889066001579" y1="4.911534819267516" x2="72.19619398587909" y2="17.517074057823777" stroke-width="4" stroke="#424242"></line>
    <line x1="94" y1="12.038475772933687" x2="87.60000000000001" y2="23.123600941374498" stroke-width="4" stroke="#424242"></line>
    <line x1="109.96266658713867" y1="25.432743418807625" x2="100.15729771521575" y2="33.660424822795335" stroke-width="4" stroke="#424242"></line>
    <line x1="120.3815572471545" y1="43.47879140045988" x2="108.35349170109488" y2="47.85664923502844" stroke-width="4" stroke="#424242"></line>
    <path d="M40,90 q 24,-15  48,0 l5,-30 l-15,10 l-14,-30 l-14,30 l-15,-10 z" stroke-width="4" stroke="#424242" fill="transparent"></path>
    <circle cx="32" cy="53" r="6" fill="#424242"></circle>
    <circle cx="64" cy="33" r="6" fill="#424242"></circle>
    <circle cx="95" cy="53" r="6" fill="#424242"></circle>
</svg>

